<svg xmlns="http://www.w3.org/2000/svg" width="87.573" height="20.685" viewBox="0 0 87.573 20.685">
  <g id="Grupo_77" data-name="Grupo 77" transform="translate(709.261 -400.929)">
    <g id="Grupo_76" data-name="Grupo 76" style="isolation: isolate">
      <path id="Caminho_2" data-name="Caminho 2" d="M-684.59,415.932a.323.323,0,0,1-.238-.1.324.324,0,0,1-.1-.238v-6.608a.327.327,0,0,1,.1-.238.327.327,0,0,1,.238-.1h1.092a.324.324,0,0,1,.238.1.323.323,0,0,1,.1.238v.476a2.439,2.439,0,0,1,.791-.665,2.54,2.54,0,0,1,1.183-.287,2.226,2.226,0,0,1,2.227,1.246,2.4,2.4,0,0,1,.93-.9,2.7,2.7,0,0,1,1.351-.343,2.657,2.657,0,0,1,1.324.336,2.345,2.345,0,0,1,.938,1.015,3.8,3.8,0,0,1,.342,1.716V415.6a.32.32,0,0,1-.1.238.32.32,0,0,1-.238.1h-1.148a.323.323,0,0,1-.238-.1.324.324,0,0,1-.1-.238V411.69a2.3,2.3,0,0,0-.182-1,1.1,1.1,0,0,0-.489-.524,1.51,1.51,0,0,0-.686-.155,1.365,1.365,0,0,0-.617.155,1.171,1.171,0,0,0-.5.524,2.166,2.166,0,0,0-.2,1V415.6a.327.327,0,0,1-.1.238.325.325,0,0,1-.239.1h-1.148a.322.322,0,0,1-.238-.1.324.324,0,0,1-.1-.238V411.69a2.167,2.167,0,0,0-.2-1,1.167,1.167,0,0,0-.505-.524,1.448,1.448,0,0,0-.658-.155,1.347,1.347,0,0,0-.629.161,1.229,1.229,0,0,0-.505.525,2.12,2.12,0,0,0-.2.994V415.6a.32.32,0,0,1-.1.238.32.32,0,0,1-.238.1Z" fill="#fff"/>
      <path id="Caminho_3" data-name="Caminho 3" d="M-670.184,416.072a2.966,2.966,0,0,1-1.316-.287,2.412,2.412,0,0,1-.931-.77,1.825,1.825,0,0,1-.342-1.085,1.833,1.833,0,0,1,.8-1.561,4.707,4.707,0,0,1,2.086-.777l1.918-.28v-.294a1.3,1.3,0,0,0-.294-.91,1.316,1.316,0,0,0-1.007-.322,1.493,1.493,0,0,0-.82.2,1.255,1.255,0,0,0-.469.539.356.356,0,0,1-.322.182h-1.106a.3.3,0,0,1-.231-.084.319.319,0,0,1-.077-.224,1.376,1.376,0,0,1,.189-.546,2.24,2.24,0,0,1,.532-.623,3.094,3.094,0,0,1,.931-.511,4.076,4.076,0,0,1,1.386-.21,4.464,4.464,0,0,1,1.491.217,2.588,2.588,0,0,1,.973.581,2.183,2.183,0,0,1,.532.855,3.163,3.163,0,0,1,.168,1.035v4.4a.32.32,0,0,1-.1.238.32.32,0,0,1-.238.1h-1.134a.317.317,0,0,1-.245-.1.334.334,0,0,1-.091-.238v-.546a2.468,2.468,0,0,1-.49.491,2.523,2.523,0,0,1-.749.384A3.309,3.309,0,0,1-670.184,416.072Zm.476-1.33a1.876,1.876,0,0,0,.889-.21,1.5,1.5,0,0,0,.631-.651,2.4,2.4,0,0,0,.23-1.113v-.294l-1.4.224a3.006,3.006,0,0,0-1.232.406.82.82,0,0,0-.406.687.771.771,0,0,0,.189.524,1.137,1.137,0,0,0,.483.322A1.8,1.8,0,0,0-669.708,414.742Z" fill="#fff"/>
      <path id="Caminho_4" data-name="Caminho 4" d="M-661.083,415.932a3.08,3.08,0,0,1-1.415-.294,1.872,1.872,0,0,1-.854-.875,3.339,3.339,0,0,1-.279-1.449v-3.178h-1.106a.327.327,0,0,1-.239-.1.345.345,0,0,1-.1-.253v-.8a.326.326,0,0,1,.1-.238.328.328,0,0,1,.239-.1h1.106v-2.323a.342.342,0,0,1,.09-.239.322.322,0,0,1,.246-.1h1.134a.327.327,0,0,1,.238.1.328.328,0,0,1,.1.239v2.323h1.75a.327.327,0,0,1,.238.1.327.327,0,0,1,.1.238v.8a.345.345,0,0,1-.1.253.326.326,0,0,1-.238.1h-1.75v3.038a1.677,1.677,0,0,0,.2.9.77.77,0,0,0,.707.322h.967a.327.327,0,0,1,.238.1.325.325,0,0,1,.1.238v.868a.324.324,0,0,1-.1.238.323.323,0,0,1-.238.1Z" fill="#fff"/>
      <path id="Caminho_5" data-name="Caminho 5" d="M-658.018,415.932a.321.321,0,0,1-.238-.1.324.324,0,0,1-.1-.238v-9.267a.328.328,0,0,1,.1-.239.325.325,0,0,1,.238-.1h1.246a.319.319,0,0,1,.245.1.338.338,0,0,1,.091.239v3.191a2.962,2.962,0,0,1,.924-.728,2.931,2.931,0,0,1,1.344-.28,2.825,2.825,0,0,1,1.491.385,2.584,2.584,0,0,1,.987,1.085,3.728,3.728,0,0,1,.35,1.681V415.6a.324.324,0,0,1-.1.238.322.322,0,0,1-.238.1h-1.26a.322.322,0,0,1-.238-.1.324.324,0,0,1-.1-.238v-3.849a1.887,1.887,0,0,0-.4-1.275,1.446,1.446,0,0,0-1.155-.462,1.544,1.544,0,0,0-1.169.462,1.771,1.771,0,0,0-.441,1.275V415.6a.334.334,0,0,1-.091.238.316.316,0,0,1-.245.1Z" fill="#fff"/>
      <path id="Caminho_6" data-name="Caminho 6" d="M-649.31,415.932a.323.323,0,0,1-.238-.1.324.324,0,0,1-.1-.238V414.21a.345.345,0,0,1,.1-.252.327.327,0,0,1,.238-.1h1.4a.325.325,0,0,1,.238.1.341.341,0,0,1,.1.252V415.6a.32.32,0,0,1-.1.238.322.322,0,0,1-.238.1Z" fill="#fff"/>
      <path id="Caminho_7" data-name="Caminho 7" d="M-642.912,415.932a3.079,3.079,0,0,1-1.414-.294,1.868,1.868,0,0,1-.854-.875,3.324,3.324,0,0,1-.28-1.449v-3.178h-1.106a.324.324,0,0,1-.238-.1.345.345,0,0,1-.1-.253v-.8a.327.327,0,0,1,.1-.238.325.325,0,0,1,.238-.1h1.106v-2.323a.338.338,0,0,1,.091-.239.318.318,0,0,1,.245-.1h1.134a.325.325,0,0,1,.238.1.328.328,0,0,1,.1.239v2.323h1.75a.325.325,0,0,1,.238.1.327.327,0,0,1,.1.238v.8a.345.345,0,0,1-.1.253.324.324,0,0,1-.238.1h-1.75v3.038a1.677,1.677,0,0,0,.2.9.768.768,0,0,0,.707.322h.966a.325.325,0,0,1,.238.1.325.325,0,0,1,.1.238v.868a.324.324,0,0,1-.1.238.322.322,0,0,1-.238.1Z" fill="#fff"/>
      <path id="Caminho_8" data-name="Caminho 8" d="M-639.846,415.932a.321.321,0,0,1-.238-.1.324.324,0,0,1-.1-.238v-9.267a.328.328,0,0,1,.1-.239.325.325,0,0,1,.238-.1h1.246a.321.321,0,0,1,.245.1.338.338,0,0,1,.091.239v3.191a2.962,2.962,0,0,1,.924-.728,2.931,2.931,0,0,1,1.344-.28,2.825,2.825,0,0,1,1.491.385,2.59,2.59,0,0,1,.987,1.085,3.728,3.728,0,0,1,.35,1.681V415.6a.324.324,0,0,1-.1.238.323.323,0,0,1-.238.1h-1.26a.322.322,0,0,1-.238-.1.324.324,0,0,1-.1-.238v-3.849a1.887,1.887,0,0,0-.4-1.275,1.446,1.446,0,0,0-1.155-.462,1.544,1.544,0,0,0-1.169.462,1.771,1.771,0,0,0-.441,1.275V415.6a.334.334,0,0,1-.091.238.317.317,0,0,1-.245.1Z" fill="#fff"/>
      <path id="Caminho_9" data-name="Caminho 9" d="M-631.11,407.448a.32.32,0,0,1-.238-.1.32.32,0,0,1-.1-.238V406.1a.322.322,0,0,1,.1-.238.324.324,0,0,1,.238-.1h1.274a.341.341,0,0,1,.252.1.325.325,0,0,1,.1.238v1.008a.324.324,0,0,1-.1.238.338.338,0,0,1-.252.1Zm.056,8.484a.322.322,0,0,1-.238-.1.324.324,0,0,1-.1-.238v-6.608a.327.327,0,0,1,.1-.238.325.325,0,0,1,.238-.1h1.162a.321.321,0,0,1,.245.1.337.337,0,0,1,.091.238V415.6a.334.334,0,0,1-.091.238.317.317,0,0,1-.245.1Z" fill="#fff"/>
      <path id="Caminho_10" data-name="Caminho 10" d="M-624.936,416.072a4.633,4.633,0,0,1-1.435-.2,3.172,3.172,0,0,1-.973-.49,2.318,2.318,0,0,1-.56-.588,1.153,1.153,0,0,1-.2-.49.274.274,0,0,1,.091-.245.343.343,0,0,1,.231-.091h1.106a.322.322,0,0,1,.1.014.365.365,0,0,1,.112.084c.121.1.25.21.385.322a1.923,1.923,0,0,0,.483.287,1.8,1.8,0,0,0,.7.119,1.8,1.8,0,0,0,.917-.216.687.687,0,0,0,.371-.624.694.694,0,0,0-.161-.476,1.414,1.414,0,0,0-.595-.329,11.334,11.334,0,0,0-1.232-.315,5.217,5.217,0,0,1-1.3-.462,1.931,1.931,0,0,1-.77-.7,1.867,1.867,0,0,1-.252-.98,1.859,1.859,0,0,1,.329-1.043,2.432,2.432,0,0,1,.98-.819,3.639,3.639,0,0,1,1.617-.322,4.126,4.126,0,0,1,1.316.189,3.306,3.306,0,0,1,.931.469,2.528,2.528,0,0,1,.567.567,1.059,1.059,0,0,1,.21.5.282.282,0,0,1-.084.245.32.32,0,0,1-.224.091h-1.036a.271.271,0,0,1-.126-.028.645.645,0,0,1-.112-.07l-.336-.3a1.683,1.683,0,0,0-.441-.273,1.745,1.745,0,0,0-.679-.112,1.247,1.247,0,0,0-.812.231.722.722,0,0,0-.28.581.659.659,0,0,0,.133.413,1.219,1.219,0,0,0,.539.329,8.565,8.565,0,0,0,1.232.323,4.481,4.481,0,0,1,1.491.5,2.03,2.03,0,0,1,.784.757,1.949,1.949,0,0,1,.231.944,1.868,1.868,0,0,1-.371,1.134,2.417,2.417,0,0,1-1.092.791A4.858,4.858,0,0,1-624.936,416.072Z" fill="#fff"/>
    </g>
    <g id="Grupo_74" data-name="Grupo 74">
      <path id="Subtração_2" data-name="Subtração 2" d="M-701.384,414.523h0a7.455,7.455,0,0,0,1.43-.141,7.338,7.338,0,0,0,1.331-.4,7.135,7.135,0,0,0,1.2-.628,7.047,7.047,0,0,0,1.054-.831,6.858,6.858,0,0,0,.865-1,6.638,6.638,0,0,0,.654-1.155,6.529,6.529,0,0,0,0-5.282,6.656,6.656,0,0,0-.654-1.153,6.842,6.842,0,0,0-.866-1.005,7.063,7.063,0,0,0-1.049-.83,7.207,7.207,0,0,0-1.2-.628,7.34,7.34,0,0,0-1.331-.4,7.454,7.454,0,0,0-1.43-.141v13.594Z" fill="#d18234"/>
      <path id="União_1" data-name="União 1" d="M-702.754,421.47V407.743h-.02v-6.78a6.891,6.891,0,0,0-1.3.2,6.863,6.863,0,0,0-1.226.439,6.981,6.981,0,0,0-1.106.652,6.981,6.981,0,0,0-.961.84,7.016,7.016,0,0,0-.791,1,6.953,6.953,0,0,0-.6,1.145,6.869,6.869,0,0,0-.376,1.255,6.958,6.958,0,0,0-.131,1.343c0,.117,0,.233.009.349,0,1.291-.02,6.747,0,6.792a6.421,6.421,0,0,0,6.464,6.492Z" fill="#d18234"/>
      <circle id="Elipse_41" data-name="Elipse 41" cx="3.25" cy="3.25" r="3.25" transform="translate(-701.384 415.114)" fill="#d18234"/>
    </g>
  </g>
</svg>
