<svg xmlns="http://www.w3.org/2000/svg" width="88.412" height="20.683" viewBox="0 0 88.412 20.683">
  <g id="Grupo_75" data-name="Grupo 75" transform="translate(-828.588 -304)">
    <text id="math.this" transform="translate(852 319)" fill="#fff" font-size="14" font-family="Rubik-Medium, Rubik" font-weight="500"><tspan x="0" y="0">math.this</tspan></text>
    <g id="Grupo_74" data-name="Grupo 74" transform="translate(828.588 304)">
      <path id="Subtração_2" data-name="Subtração 2" d="M7.091,0h0a7.482,7.482,0,0,0-1.43.141,7.317,7.317,0,0,0-1.331.4,7.221,7.221,0,0,0-1.2.628A7.1,7.1,0,0,0,2.076,2,6.921,6.921,0,0,0,1.211,3,6.706,6.706,0,0,0,.557,4.155a6.532,6.532,0,0,0,0,5.282,6.706,6.706,0,0,0,.654,1.153,6.921,6.921,0,0,0,.866,1.005,7.1,7.1,0,0,0,1.049.83,7.221,7.221,0,0,0,1.2.628,7.317,7.317,0,0,0,1.331.4,7.483,7.483,0,0,0,1.43.141V0Z" transform="translate(14.969 13.591) rotate(180)" fill="#d18234"/>
      <path id="União_1" data-name="União 1" d="M0,0V13.727H.02v6.78a6.9,6.9,0,0,0,1.3-.2,6.835,6.835,0,0,0,1.226-.439,6.885,6.885,0,0,0,1.106-.652,6.966,6.966,0,0,0,.961-.84,6.947,6.947,0,0,0,.791-1A6.851,6.851,0,0,0,6,16.231a6.839,6.839,0,0,0,.376-1.255,6.912,6.912,0,0,0,.131-1.343q0-.175-.009-.349c0-1.291.02-6.747,0-6.792C6.086.14.523,0,.034,0Z" transform="translate(6.508 20.538) rotate(180)" fill="#d18234"/>
      <circle id="Elipse_41" data-name="Elipse 41" cx="3.25" cy="3.25" r="3.25" transform="translate(7.878 14.182)" fill="#d18234"/>
    </g>
  </g>
</svg>
